<svg width="71" height="68" viewBox="0 0 71 68" fill="none" xmlns="http://www.w3.org/2000/svg">
<path d="M70.376 22.6899C68.827 21.6539 67.208 20.8039 65.83 20.1049C63.518 18.9319 61.388 18.024 59.319 17.33C57.078 16.58 54.881 16.0779 52.788 15.8469C50.007 15.5339 47.59 15.713 45.394 16.395C43.266 17.059 41.329 18.2259 39.748 19.7969C39.433 17.5899 38.59 15.4909 37.291 13.6799C35.949 11.8119 34.127 10.2129 31.717 8.78693C29.905 7.70993 27.849 6.78595 25.611 6.03595C23.543 5.34295 21.295 4.78395 18.744 4.32795C17.223 4.05595 15.417 3.75992 13.557 3.65192C12.557 3.59092 0.794976 46.5439 0.794976 46.5439C0.454976 48.2929 0.454974 48.293 0.492974 49.161C0.530974 50.071 1.02601 50.815 1.75201 51.059C2.27101 51.233 2.83901 51.1309 3.35101 50.7719C5.38301 49.3459 9.41097 49.3889 13.863 50.8799C14.602 51.1279 15.33 51.4089 16.028 51.7189L18.112 52.635C20.912 53.866 26.289 56.3089 26.294 56.3109C26.603 56.5749 28.085 57.0719 28.494 57.0479C28.5 57.0499 34.262 58.339 37.238 59.043C37.973 59.219 38.711 59.392 39.451 59.567C40.244 59.752 41.027 59.974 41.799 60.234C46.216 61.714 49.423 64.0639 50.167 66.3679C50.36 66.9649 50.752 67.3889 51.272 67.5629C51.997 67.8059 52.838 67.5079 53.417 66.8069C53.97 66.1409 71.22 23.247 70.383 22.692" fill="#6C502D"/>
<path d="M39.445 19.9872C39.52 19.3202 39.546 18.6482 39.525 17.9772C39.46 15.5362 38.672 13.1702 37.26 11.1782C35.899 9.25919 34.064 7.79621 32.127 6.64321C28.319 4.37621 23.984 3.13122 19.65 2.36422C17.999 2.07222 16.326 1.81919 14.643 1.72219C13.955 1.68419 3.259 46.4962 3.902 46.0402C7.197 43.7002 13.276 44.7842 17.761 46.7722C21.25 48.3192 24.644 49.7912 28.074 51.3972C28.131 51.4272 28.172 51.4802 28.221 51.5222C28.509 51.7662 28.97 51.5342 29.095 51.1622L32.003 42.4832L37.175 27.0482L38.946 21.7602L39.336 20.5982C39.404 20.4012 39.425 20.1962 39.448 19.9892" fill="#A7A9AC"/>
<path d="M40.327 17.3781C40.408 16.7301 40.443 16.0781 40.435 15.4261C40.402 12.9541 39.6849 10.7131 38.4439 8.85206C37.2139 7.01406 35.539 5.6231 33.756 4.5301C30.26 2.3901 26.2559 1.25408 22.2459 0.578078C20.7199 0.320078 19.174 0.101076 17.609 0.0390761C16.971 0.0110761 6.561 43.3161 7.163 42.8601C11.723 39.4311 15.9349 40.4261 20.2329 42.3601C23.4489 43.8061 26.508 45.7731 29.25 48.0991C29.296 48.1381 29.342 48.1761 29.385 48.2171C29.649 48.4471 30.08 48.2181 30.202 47.8541L33.045 39.3681L38.101 24.2781L39.831 19.1131L40.212 17.9761C40.278 17.7801 40.302 17.5801 40.327 17.3781Z" fill="#E6E7E8"/>
<path d="M18.96 5.2452L18.929 5.38723C19.837 5.55723 20.742 5.74623 21.642 5.95523C25.179 6.76323 28.758 7.84423 32 9.48123C33.652 10.3102 35.246 11.3162 36.494 12.5402C37.225 13.2572 37.814 14.0342 38.236 14.8502C37.936 13.5882 37.245 12.3952 36.258 11.3512C35.141 10.1702 33.699 9.21919 32.21 8.44119C29.271 6.90819 26.004 5.92921 22.774 5.22421C21.545 4.95821 20.299 4.7072 19.056 4.5502C18.546 4.4882 18.516 5.11518 18.964 5.24618" fill="#6C502D"/>
<path d="M17.523 9.53299L17.492 9.67495C18.4 9.84495 19.305 10.033 20.206 10.241C23.742 11.05 27.321 12.132 30.563 13.768C32.215 14.598 33.808 15.603 35.057 16.828C35.787 17.546 36.377 18.322 36.799 19.138C36.499 17.874 35.808 16.684 34.821 15.638C33.704 14.458 32.263 13.504 30.773 12.728C27.834 11.197 24.567 10.216 21.337 9.51297C20.106 9.24597 18.86 8.99596 17.617 8.83896C17.11 8.77196 17.08 9.40196 17.527 9.53396" fill="#6C502D"/>
<path d="M16.393 13.9153L16.363 14.0573C17.272 14.2253 18.177 14.4143 19.077 14.6243C22.614 15.4293 26.192 16.5153 29.434 18.1473C31.085 18.9803 32.678 19.9823 33.926 21.2083C34.658 21.9273 35.248 22.7063 35.671 23.5193C35.37 22.2553 34.678 21.0663 33.69 20.0193C32.573 18.8383 31.133 17.8873 29.642 17.1083C26.703 15.5753 23.435 14.6003 20.206 13.8943C18.975 13.6243 17.73 13.3753 16.486 13.2163C15.977 13.1533 15.945 13.7863 16.395 13.9163" fill="#6C502D"/>
<path d="M15.184 18.9081L15.156 19.0481C16.065 19.2181 16.969 19.4081 17.869 19.6181C21.406 20.4251 24.985 21.5071 28.226 23.1411C29.875 23.9741 31.47 24.9781 32.719 26.2001C33.451 26.9191 34.041 27.6971 34.462 28.5121C34.162 27.2481 33.474 26.0571 32.484 25.0101C31.368 23.8301 29.926 22.8801 28.435 22.1001C25.496 20.5691 22.229 19.5901 19.001 18.8861C17.769 18.6181 16.524 18.3691 15.28 18.2121C14.771 18.1481 14.74 18.7791 15.188 18.9091" fill="#6C502D"/>
<path d="M13.749 23.1899L13.72 23.3329C14.629 23.5009 15.533 23.6899 16.433 23.9009C19.97 24.7079 23.549 25.7899 26.79 27.4259C28.44 28.2549 30.034 29.2599 31.282 30.4849C32.014 31.2039 32.606 31.9799 33.026 32.7949C32.726 31.5309 32.037 30.3409 31.047 29.2949C29.932 28.1149 28.491 27.1609 26.999 26.3839C24.061 24.8499 20.793 23.8719 17.566 23.1689C16.333 22.8989 15.088 22.6519 13.844 22.4949C13.334 22.4339 13.305 23.0589 13.752 23.1909" fill="#6C502D"/>
<path d="M12.619 27.5813L12.589 27.7183C13.498 27.8883 14.404 28.0782 15.304 28.2872C18.842 29.0932 22.418 30.1772 25.663 31.8112C27.311 32.6432 28.9061 33.6473 30.1551 34.8703C30.8851 35.5883 31.475 36.3653 31.898 37.1813C31.597 35.9173 30.907 34.7303 29.919 33.6813C28.804 32.5013 27.361 31.5473 25.871 30.7713C22.933 29.2363 19.664 28.2613 16.438 27.5523C15.205 27.2863 13.958 27.0373 12.716 26.8803C12.206 26.8183 12.176 27.4472 12.622 27.5822" fill="#6C502D"/>
<path d="M39.615 20.0431C39.957 19.4611 40.343 18.9091 40.761 18.3911C42.285 16.4831 44.34 15.0691 46.667 14.3291C48.909 13.6181 51.256 13.5561 53.497 13.8021C57.901 14.2871 62.1111 15.9051 66.0301 17.9041C67.5241 18.6651 69.012 19.4721 70.414 20.4091C70.988 20.7931 52.5531 62.9221 52.3141 62.1741C51.0931 58.3181 45.563 55.6011 40.785 54.4861C37.069 53.6191 33.472 52.7481 29.768 51.9641C29.706 51.9541 29.639 51.9721 29.575 51.9751C29.198 51.9961 28.97 51.5341 29.094 51.1621L32.002 42.4821L37.174 27.0471L38.946 21.7601L39.335 20.5971C39.4 20.3991 39.505 20.2231 39.612 20.0431" fill="#A7A9AC"/>
<path d="M40.481 17.4292C40.81 16.8612 41.177 16.3172 41.573 15.8072C43.088 13.8542 45.01 12.4932 47.12 11.7592C49.21 11.0332 51.393 10.9352 53.468 11.1352C57.548 11.5332 61.428 13.0382 65.034 14.9142C66.406 15.6282 67.775 16.3852 69.058 17.2782C69.584 17.6412 51.804 58.4762 51.597 57.7492C50.025 52.2652 46.064 50.5222 41.469 49.4762C38.032 48.6892 34.406 48.4202 30.813 48.6232C30.754 48.6272 30.695 48.6302 30.636 48.6362C30.286 48.6622 30.079 48.2192 30.201 47.8552L33.044 39.3692L38.1 24.2792L39.831 19.1142L40.212 17.9772C40.279 17.7802 40.382 17.6072 40.481 17.4292Z" fill="#E6E7E8"/>
<path d="M64.849 20.6211L64.788 20.7531C63.96 20.3411 63.123 19.9471 62.278 19.5711C58.969 18.0841 55.46 16.7911 51.888 16.1441C50.072 15.8121 48.194 15.6541 46.459 15.8801C45.443 16.0101 44.505 16.2761 43.676 16.6731C44.676 15.8461 45.946 15.3102 47.364 15.0722C48.967 14.8032 50.688 14.9111 52.349 15.1881C55.618 15.7351 58.806 16.9192 61.817 18.3062C62.96 18.8342 64.104 19.3841 65.192 20.0091C65.637 20.2651 65.282 20.7852 64.845 20.6192" fill="#6C502D"/>
<path d="M63.414 24.908L63.352 25.04C62.524 24.628 61.688 24.234 60.843 23.856C57.534 22.372 54.025 21.078 50.453 20.432C48.636 20.099 46.758 19.942 45.024 20.167C44.007 20.299 43.07 20.564 42.24 20.961C43.241 20.133 44.51 19.599 45.929 19.359C47.532 19.09 49.254 19.197 50.914 19.476C54.182 20.024 57.371 21.207 60.382 22.595C61.525 23.123 62.669 23.671 63.756 24.298C64.202 24.55 63.847 25.071 63.41 24.907" fill="#6C502D"/>
<path d="M61.673 29.0872L61.61 29.2183C60.783 28.8043 59.946 28.4092 59.101 28.0352C55.794 26.5472 52.284 25.2572 48.713 24.6072C46.896 24.2782 45.017 24.1163 43.282 24.3433C42.266 24.4763 41.326 24.7432 40.5 25.1382C41.501 24.3102 42.767 23.7772 44.188 23.5362C45.79 23.2672 47.511 23.3752 49.182 23.6562C52.448 24.2022 55.638 25.3902 58.648 26.7722C59.791 27.3002 60.937 27.8512 62.024 28.4742C62.468 28.7302 62.113 29.2552 61.677 29.0882" fill="#6C502D"/>
<path d="M59.627 33.7988L59.567 33.9278C58.74 33.5168 57.903 33.1228 57.059 32.7488C53.75 31.2618 50.241 29.9688 46.669 29.3198C44.85 28.9908 42.973 28.8308 41.239 29.0548C40.223 29.1878 39.283 29.4528 38.455 29.8488C39.456 29.0218 40.725 28.4858 42.146 28.2468C43.747 27.9768 45.469 28.0878 47.13 28.3628C50.399 28.9118 53.587 30.0958 56.599 31.4828C57.742 32.0098 58.886 32.5618 59.974 33.1828C60.419 33.4418 60.063 33.9648 59.626 33.7978" fill="#6C502D"/>
<path d="M58.192 38.0811L58.131 38.2132C57.304 37.7992 56.468 37.4052 55.623 37.0312C52.314 35.5452 48.805 34.2521 45.233 33.6051C43.415 33.2721 41.537 33.1142 39.803 33.3402C38.786 33.4732 37.848 33.7362 37.019 34.1322C38.02 33.3052 39.289 32.7711 40.709 32.5321C42.311 32.2621 44.034 32.3692 45.694 32.6482C48.963 33.1932 52.152 34.3791 55.163 35.7661C56.306 36.2921 57.451 36.8452 58.538 37.4682C58.982 37.7282 58.628 38.2452 58.19 38.0802" fill="#6C502D"/>
<path d="M56.45 42.2671L56.393 42.3951C55.565 41.9831 54.728 41.5891 53.883 41.2131C50.574 39.7251 47.065 38.4351 43.493 37.7851C41.674 37.4561 39.799 37.2971 38.064 37.5201C37.049 37.6531 36.108 37.9171 35.281 38.3151C36.281 37.4871 37.55 36.9561 38.968 36.7141C40.572 36.4441 42.294 36.5511 43.962 36.8331C47.23 37.3771 50.419 38.5661 53.431 39.9481C54.573 40.4771 55.717 41.0291 56.806 41.6531C57.249 41.9101 56.893 42.4301 56.454 42.2681" fill="#6C502D"/>
<path d="M31.663 51.9009C31.52 52.3289 29.237 51.9489 28.87 51.8259C28.505 51.7029 26.454 50.6309 26.597 50.2039L39.589 17.6359C39.732 17.2079 40.145 16.9609 40.511 17.0829C40.878 17.2059 41.059 17.6529 40.916 18.0799L31.663 51.9009Z" fill="#A7A9AC"/>
</svg>
