<svg width="109" height="88" viewBox="0 0 109 88" fill="none" xmlns="http://www.w3.org/2000/svg">
<path d="M72.77 20.0501C85.73 35.0541 103.02 29.2421 107.55 41.2791C109.6 46.6921 108.63 53.5351 105.34 57.0661C97.9599 64.9811 87.03 67.3031 77.08 70.8751C74.66 71.7411 74.73 71.7681 72.56 72.6071C47.325 82.3621 45.308 85.3581 37.322 86.6491C34.87 87.0481 19.585 89.5351 9.25895 80.5621C-0.870048 71.7681 -0.14202 57.1621 0.12498 51.9141C1.45598 25.0791 25.469 0.291117 45.293 0.0021168C51.588 -0.0878832 56.765 2.18209 57.402 2.47309C57.447 2.49309 57.492 2.51411 57.536 2.53611C65.99 6.61811 66.731 13.0611 72.77 20.0501Z" fill="url(#paint0_linear_163_2)"/>
<path d="M45.999 36.8608C44.057 36.8608 42.195 37.6458 40.822 39.0428C39.449 40.4398 38.678 42.3338 38.678 44.3088C38.678 46.2848 39.449 48.1788 40.822 49.5758C42.195 50.9718 44.057 51.7568 45.999 51.7568C47.941 51.7568 49.803 50.9718 51.176 49.5758C52.549 48.1788 53.32 46.2848 53.32 44.3088C53.32 42.3338 52.549 40.4398 51.176 39.0428C49.803 37.6458 47.941 36.8608 45.999 36.8608ZM45.999 49.1458C44.738 49.1458 43.528 48.6359 42.636 47.7289C41.744 46.8219 41.243 45.5909 41.243 44.3079C41.243 43.0239 41.744 41.7938 42.636 40.8858C43.528 39.9788 44.738 39.4688 45.999 39.4688C47.261 39.4688 48.47 39.9788 49.362 40.8858C50.254 41.7938 50.755 43.0239 50.755 44.3079C50.755 45.5909 50.254 46.8219 49.362 47.7289C48.47 48.6359 47.261 49.1458 45.999 49.1458Z" fill="#333333"/>
<path d="M53.6089 38.3241C54.5519 38.3241 55.3159 37.5461 55.3159 36.5881C55.3159 35.6291 54.5519 34.8511 53.6089 34.8511C52.6669 34.8511 51.9019 35.6291 51.9019 36.5881C51.9019 37.5461 52.6669 38.3241 53.6089 38.3241Z" fill="#333333"/>
<path d="M59.5109 34.8218C59.1449 33.8588 58.5849 32.9849 57.8669 32.2549C57.1489 31.5249 56.2889 30.9549 55.3419 30.5829C54.2349 30.1599 53.0639 29.9309 51.8809 29.9059C50.3559 29.8389 49.8739 29.8188 46.0069 29.8188C42.1409 29.8188 41.6449 29.8189 40.1329 29.9059C38.9509 29.9299 37.7809 30.1589 36.6749 30.5829C35.7279 30.9549 34.8679 31.5238 34.1499 32.2538C33.4319 32.9838 32.8719 33.8588 32.5059 34.8218C32.0899 35.9488 31.8659 37.1398 31.8429 38.3428C31.7739 39.8928 31.7539 40.3838 31.7539 44.3188C31.7539 48.2518 31.7539 48.7529 31.8429 50.2949C31.8659 51.4989 32.0899 52.6878 32.5059 53.8168C32.8729 54.7798 33.4339 55.6539 34.1519 56.3839C34.8699 57.1138 35.7299 57.6839 36.6759 58.0569C37.7809 58.4969 38.9509 58.7419 40.1359 58.7809C41.6609 58.8489 42.1439 58.8698 46.0099 58.8698C49.8769 58.8698 50.3719 58.8699 51.8839 58.7809C53.0669 58.7569 54.2379 58.5288 55.3459 58.1068C56.2919 57.7328 57.1519 57.1629 57.8689 56.4329C58.5869 55.7029 59.1469 54.8278 59.5139 53.8658C59.9309 52.7378 60.1539 51.5488 60.1779 50.3448C60.2459 48.7948 60.2669 48.3038 60.2669 44.3688C60.2669 40.4338 60.2669 39.9349 60.1779 38.3929C60.1589 37.1729 59.9339 35.9648 59.5109 34.8218ZM57.5829 50.1748C57.5729 51.1038 57.4059 52.0229 57.0899 52.8939C56.8529 53.5209 56.4888 54.0888 56.0219 54.5638C55.5549 55.0388 54.9959 55.4088 54.3799 55.6498C53.5329 55.9698 52.6389 56.1388 51.7359 56.1508C50.2309 56.2218 49.8069 56.2398 45.9499 56.2398C42.0899 56.2398 41.6959 56.2398 40.1629 56.1508C39.2599 56.1398 38.3659 55.9698 37.5199 55.6498C36.9019 55.4098 36.3409 55.0409 35.8719 54.5659C35.4029 54.0909 35.0369 53.5219 34.7989 52.8939C34.4869 52.0329 34.3209 51.1238 34.3059 50.2058C34.2379 48.6758 34.2219 48.2439 34.2219 44.3209C34.2219 40.3949 34.2219 39.9939 34.3059 38.4329C34.3159 37.5059 34.4829 36.5869 34.7989 35.7159C35.2819 34.4449 36.2709 33.4449 37.5199 32.9589C38.3669 32.6399 39.2609 32.4709 40.1629 32.4579C41.6689 32.3879 42.0909 32.3688 45.9499 32.3688C49.8089 32.3688 50.2039 32.3689 51.7359 32.4579C52.6389 32.4689 53.5329 32.6379 54.3799 32.9589C54.9959 33.2009 55.5549 33.5708 56.0219 34.0458C56.4879 34.5208 56.8519 35.0899 57.0899 35.7159C57.4019 36.5779 57.5679 37.4868 57.5829 38.4038C57.6509 39.9358 57.6679 40.3658 57.6679 44.2918C57.6679 48.2148 57.6679 48.6368 57.5999 50.1768H57.5829V50.1748Z" fill="#333333"/>
<defs>
<linearGradient id="paint0_linear_163_2" x1="54.313" y1="0.000116772" x2="54.313" y2="87.2651" gradientUnits="userSpaceOnUse">
<stop stop-color="#FF835B"/>
<stop offset="1" stop-color="#FFC75A"/>
</linearGradient>
</defs>
</svg>
