<svg width="174" height="133" viewBox="0 0 174 133" fill="none" xmlns="http://www.w3.org/2000/svg">
<path d="M45.732 91.0539C31.792 63.1749 3.05798 65.9439 0.835984 45.6869C-0.169016 36.5749 3.99499 26.3359 10.419 22.0569C24.822 12.4699 42.454 12.8099 59.076 10.8629C63.124 10.3959 63.028 10.3289 66.679 9.81288C109.115 3.80188 113.377 -0.107095 126.103 0.768905C130.011 1.0349 154.374 2.68888 166.652 20.2879C178.699 37.5399 171.853 59.8759 169.385 67.9019C156.818 108.942 110.348 138.65 79.902 131.961C70.081 129.8 62.98 124.287 62.307 123.751C62.269 123.721 62.235 123.693 62.197 123.662C50.828 114.295 52.232 104.053 45.732 91.0539Z" fill="#FFA843" fill-opacity="0.2"/>
</svg>
